<?xml version="1.0" encoding="iso-8859-1"?>
<!DOCTYPE svg PUBLIC "-//W3C//DTD SVG 1.1//EN" "http://www.w3.org/Graphics/SVG/1.1/DTD/svg11.dtd">
<svg 
 version="1.1" xmlns="http://www.w3.org/2000/svg" xmlns:xlink="http://www.w3.org/1999/xlink" x="0px" y="0px" width="512px"
	 height="512px" viewBox="0 0 512 512" style="enable-background:new 0 0 512 512;" xml:space="preserve"
><g id="afcae5a789ccd549f9c6e2a2f80ee684"><g></g><path style="display: inline; fill-rule: evenodd; clip-rule: evenodd;" d="M0.5,407.331v-21.833c0,0,43.969-19.452,68.869-47.394
		c20.792-23.334,23.258-55.983,23.258-55.983s1.057-13.585,1.265-32.673c0.333-30.498,2.666-76.708,26.478-116.53
		c33.14-55.416,90.635-60.231,90.635-60.231l0.537-60.527H256h44.459l0.535,60.527c0,0,57.497,4.815,90.636,60.231
		c23.812,39.822,26.146,86.032,26.478,116.53c0.209,19.088,1.265,32.673,1.265,32.673s2.466,32.649,23.258,55.983
		c24.902,27.941,68.87,47.394,68.87,47.394v21.833H0.5z M170.833,437.992v0.004c0,34.153,38.13,61.845,85.167,61.845
		c47.037,0,85.166-27.691,85.166-61.845v-0.004H170.833z"></path></g></svg>