<?xml version="1.0" encoding="iso-8859-1"?>
<!DOCTYPE svg PUBLIC "-//W3C//DTD SVG 1.1//EN" "http://www.w3.org/Graphics/SVG/1.1/DTD/svg11.dtd">
<svg 
 version="1.1" xmlns="http://www.w3.org/2000/svg" xmlns:xlink="http://www.w3.org/1999/xlink" x="0px" y="0px" width="512px"
	 height="512px" viewBox="0 0 512 512" enable-background="new 0 0 512 512" xml:space="preserve"
><g id="e6c6b53d3c8160b22dad35a0f70aeb63"><g></g><path display="inline" d="M319.875,75.021c-105.834,0-191.625,52.431-191.625,117.104v42.583
		c0,64.674,85.791,117.104,191.625,117.104c105.835,0,191.625-52.431,191.625-117.104v-42.583
		C511.5,127.451,425.71,75.021,319.875,75.021z M442.053,253.128c-32.237,19.702-75.627,30.551-122.178,30.551
		s-89.94-10.849-122.178-30.551c-16.393-10.02-43.897-31.268-43.897-61.003s27.505-50.983,43.897-61.004
		c32.237-19.701,75.627-30.551,122.178-30.551s89.94,10.85,122.178,30.551c16.393,10.021,43.897,31.269,43.897,61.004
		S458.445,243.108,442.053,253.128z M319.875,373.104c15.641,0,30.818-1.069,45.42-3.057c-30.753,39.568-96.72,66.932-173.17,66.932
		C86.291,436.979,0.5,384.549,0.5,319.875v-42.583c0-46.52,44.388-86.702,108.696-105.598c-1.456,6.655-2.237,13.474-2.237,20.431
		v7.055c-13.437,4.605-25.899,10.317-37.011,17.108c-16.393,10.02-43.897,31.268-43.897,61.004
		c0,29.733,27.505,50.983,43.897,61.005c32.237,19.699,75.627,30.549,122.178,30.549c17.732,0,35.002-1.584,51.378-4.624
		C267.116,369.952,292.819,373.104,319.875,373.104z M334.334,227.1h28.124v18.254H275.99V227.1h28.315v-65.203l-29.076,4.817
		v-18.692l59.104-9.126V227.1z"></path></g></svg>