<?xml version="1.0" encoding="iso-8859-1"?>
<!DOCTYPE svg PUBLIC "-//W3C//DTD SVG 1.1//EN" "http://www.w3.org/Graphics/SVG/1.1/DTD/svg11.dtd">
<svg 
 version="1.1" xmlns="http://www.w3.org/2000/svg" xmlns:xlink="http://www.w3.org/1999/xlink" x="0px" y="0px" width="512px"
	 height="512px" viewBox="0 0 512 512" enable-background="new 0 0 512 512" xml:space="preserve"
><g id="b75708d097f2188dff6617b0f00d1896"><g></g><path display="inline" d="M312.776,390.345l-14.193,56.78l56.776-14.197L511.5,276.792l-42.583-42.584L312.776,390.345z
		 M323.068,434.467l-11.71-11.711l6.741-26.968l31.938,31.938L323.068,434.467z M277.903,389.38H0.5v-63.497
		c1.655-7.48,4.096-14.604,7.381-21.362c2.741-5.889,6.496-11.535,11.236-17.104c4.757-5.594,10.854-9.735,18.343-12.492
		c3.838-1.265,123.33-51.928,128.989-54.477v-18.36c-0.354-1.439-0.952-3.691-1.763-6.704c-0.844-3.015-1.692-6.067-2.62-9.184
		c-1.073-3.622-2.375-7.554-3.826-11.767c-5.29-9.858-9.498-21.017-12.6-33.528c-3.103-12.509-4.67-25.799-4.67-39.853
		c0-18.451,1.979-34.064,5.888-46.833c3.946-12.79,9.278-23.186,16.052-31.208c6.737-8.039,14.63-13.896,23.683-17.535
		C195.623,1.805,205.333,0,215.75,0c10.229,0,19.849,1.751,28.881,5.339c9.049,3.568,16.979,9.303,23.824,17.239
		c6.857,7.953,12.226,18.35,16.172,31.239c3.938,12.842,5.889,28.627,5.889,47.235c0,13.707-1.51,26.683-4.521,39.021
		c-3.019,12.336-7.182,23.411-12.463,33.304c-1.46,4.522-2.836,8.82-4.096,12.823c-1.103,3.5-2.113,6.826-3.02,9.979
		c-0.923,3.241-1.368,5.581-1.368,7.023v19.154c5.847,2.545,83.079,36.005,90.369,39.053c3.563,1.456,15.07,6.367,26.457,11.66
		l-93.188,93.185c-4.367,4.366-7.461,9.839-8.958,15.827L277.903,389.38z"></path></g></svg>